<?xml version="1.0" encoding="UTF-8" standalone="no"?>
<!-- Created with Inkscape (http://www.inkscape.org/) -->

<svg
   xmlns:dc="http://purl.org/dc/elements/1.1/"
   xmlns:cc="http://creativecommons.org/ns#"
   xmlns:rdf="http://www.w3.org/1999/02/22-rdf-syntax-ns#"
   xmlns:svg="http://www.w3.org/2000/svg"
   xmlns="http://www.w3.org/2000/svg"
   xmlns:sodipodi="http://sodipodi.sourceforge.net/DTD/sodipodi-0.dtd"
   xmlns:inkscape="http://www.inkscape.org/namespaces/inkscape"
   id="svg2"
   version="1.1"
   inkscape:version="0.92.1 r15371"
   xml:space="preserve"
   width="395.13031"
   height="465.53983"
   viewBox="0 0 395.13031 465.53983"
   sodipodi:docname="nailgear.svg"
   inkscape:export-filename="C:\Users\modak\Downloads\nailgear.png"
   inkscape:export-xdpi="192"
   inkscape:export-ydpi="192"><metadata
     id="metadata8"><rdf:RDF><cc:Work
         rdf:about=""><dc:format>image/svg+xml</dc:format><dc:type
           rdf:resource="http://purl.org/dc/dcmitype/StillImage" /><dc:title></dc:title></cc:Work></rdf:RDF></metadata><defs
     id="defs6"><clipPath
       clipPathUnits="userSpaceOnUse"
       id="clipPath4520"><rect
         id="rect4522"
         width="3319.144"
         height="3317.7979"
         x="2051.9048"
         y="-4194.8218"
         style="opacity:0.37900002;stroke-width:8;image-rendering:auto"
         transform="scale(1,-1)" /></clipPath></defs><sodipodi:namedview
     pagecolor="#ffffff"
     bordercolor="#666666"
     borderopacity="1"
     objecttolerance="10"
     gridtolerance="10"
     guidetolerance="10"
     inkscape:pageopacity="0"
     inkscape:pageshadow="2"
     inkscape:window-width="1920"
     inkscape:window-height="1001"
     id="namedview4"
     showgrid="true"
     inkscape:zoom="1.3674122"
     inkscape:cx="157.06248"
     inkscape:cy="265.58901"
     inkscape:window-x="-9"
     inkscape:window-y="-9"
     inkscape:window-maximized="1"
     inkscape:current-layer="g10"
     fit-margin-left="0"
     fit-margin-top="0"
     fit-margin-right="0"
     fit-margin-bottom="0"
     inkscape:pagecheckerboard="true" /><g
     id="g10"
     inkscape:groupmode="layer"
     inkscape:label="ink_ext_XXXXXX"
     transform="matrix(1.25,0,0,-1.25,-266.42333,575.91333)"><rect
       style="opacity:1;fill:#000000;fill-opacity:1;stroke:none;stroke-width:56.39055252;stroke-miterlimit:4;stroke-dasharray:none;stroke-opacity:1"
       id="rect4500"
       width="3176.8035"
       height="3732.5979"
       x="2131.3867"
       y="-4603.8853"
       transform="scale(0.1,-0.1)" /><g
       id="g12"
       transform="scale(0.1)"><g
         id="g3709"><path
           inkscape:connector-curvature="0"
           id="path16"
           style="fill:#ffffff;fill-opacity:1;fill-rule:nonzero;stroke:#000000;stroke-width:8;stroke-miterlimit:4;stroke-dasharray:none;stroke-opacity:1"
           d="m 3560.943,4204.06 c 18.9505,4.384 42.681,15.3301 54.2917,64.7993 l 77.7464,302.38 c 0,0 7.3185,32.0956 18.109,32.0673 10.7621,0.014 18.314,-32.0602 18.314,-32.0602 l 78.7717,-302.3871 c 12.8906,-51.2299 35.6453,-60.6486 54.6099,-64.9195 9.256,-1.9587 14.7219,-7.4246 20.6192,-12.2047 50.9753,-41.1748 38.2474,-174.9453 86.6701,-225.8004 15.2452,-16.023 167.3085,-59.899 167.3085,-59.899 h 0.028 c 0,0 148.7258,-53.7755 170.5188,-49.7874 68.9853,12.7138 137.2919,128.453 202.7608,131.8238 48.1603,2.453 114.0549,-45.5815 156.5527,-76.6935 43.1116,-30.3002 108.7898,-78.5935 121.3466,-125.2074 17.0278,-63.2995 -71.8746,-164.0247 -62.6398,-233.5616 2.9345,-21.9557 100.19,-146.8873 100.19,-146.8873 0,0 88.6995,-130.9138 108.6894,-140.4385 63.2931,-30.2995 186.5559,23.1578 241.5052,-12.6006 40.4444,-26.3065 65.4852,-103.8952 81.5789,-154.0715 17.1049,-49.844 41.8395,-127.5267 24.5932,-172.5907 -23.4264,-61.2 -154.5735,-90.4672 -187.9773,-152.141 -10.5571,-19.495 -5.2538,-177.6889 -5.2538,-177.6889 0,0 -5.2184,-158.0667 5.3599,-177.5262 33.3967,-61.7092 164.5367,-90.9269 187.9843,-152.1341 17.2322,-45.0639 -8.1034,-122.5557 -24.5719,-172.6118 -15.4574,-50.3743 -41.1183,-127.753 -81.5436,-154.0927 -54.9351,-35.7584 -178.2192,17.7059 -241.5335,-12.6007 -19.9687,-9.5459 -108.7035,-140.6506 -108.7035,-140.6506 0,0 -97.0858,-124.8185 -100.0062,-146.7741 -9.2206,-69.5652 79.7193,-170.2713 62.6992,-233.5645 -12.5441,-46.6266 -78.5808,-94.4058 -121.3607,-125.2215 -42.0729,-31.636 -108.3288,-79.1818 -156.5252,-76.7211 -65.4569,3.3588 -201.7658,106.264 -207.55,176.211 0,0 -7.8913,159.3678 -0.3889,207.1187 7.5236,47.758 13.1169,69.2045 44.2083,95.8978 31.0703,26.6862 132.1654,124.1609 142.4821,134.6048 429.6451,429.6452 429.638,1126.209 0.014,1555.8471 -176.2393,176.2393 -397.4082,280.184 -626.6239,311.8341 l 85.7084,-2218.3142 c 2.0436,-60.2809 2.5244,-109.1702 30.3844,-140.0849 l 398.4193,-398.41934 c 32.5199,-32.54812 27.2943,-42.6244 5.8761,-41.96679 H 3040.512 c -16.8079,0.71418 -23.7234,7.36099 -8.9873,22.06881 l 411.9321,418.31022 c 26.4529,29.4793 26.3751,80.0869 29.8823,139.8799 l 88.1338,2218.6465 c -229.5339,-31.5158 -451.028,-135.4887 -627.4795,-311.9402 -429.638,-429.6522 -429.6451,-1126.216 0,-1555.8612 l 0.389,-0.2333 c 10.3166,-10.4723 111.4188,-107.9399 142.4961,-134.619 31.0844,-26.7003 36.6776,-48.1469 44.1871,-95.8907 7.5024,-47.751 -0.3889,-207.147 -0.3889,-207.147 -5.7629,-69.9116 -142.079,-172.8098 -207.5217,-176.1827 -48.1964,-2.489 -114.0705,45.566 -156.5888,76.6857 -43.1194,30.2642 -108.7954,78.5879 -121.3395,125.1862 -17.0271,63.2861 71.9057,164.0134 62.6567,233.5927 -2.9203,21.9416 -100.1899,146.8308 -100.1758,146.8449 0,0 -88.749,130.9208 -108.6894,140.4809 -63.3073,30.2571 -186.5913,-23.1931 -241.5052,12.5582 -40.4678,26.2973 -65.5205,103.9023 -81.6214,154.0715 -17.0837,49.8369 -41.8395,127.555 -24.579,172.5906 23.4194,61.2355 154.5735,90.439 187.9985,152.1482 10.5288,19.4949 5.2538,177.6889 5.2538,177.6889 l 0.01,0.01 c 0,0 5.1689,158.0738 -5.3599,177.5404 -33.4249,61.7092 -164.572,90.9339 -187.9914,152.1128 -17.2888,45.0639 8.0681,122.5628 24.5507,172.6048 15.4503,50.3814 41.0971,127.7742 81.5648,154.0998 54.8998,35.7371 178.205,-17.6918 241.5052,12.6006 19.9617,9.553 108.6753,140.6506 108.6753,140.6506 0,0 97.114,124.8468 100.0202,146.7883 9.2561,69.5581 -79.6697,170.2643 -62.6638,233.5574 12.5229,46.6195 78.5879,94.427 121.3042,125.2215 42.1224,31.6431 108.3641,79.2031 156.5322,76.714 65.4993,-3.3446 133.8129,-119.0626 202.8265,-131.7622 21.7789,-4.0164 170.6037,49.9146 170.6037,49.9146 0,0 151.9148,43.9255 167.2095,59.9556 48.352,50.8551 35.6029,184.6044 86.5782,225.7792 5.8902,4.773 11.8087,9.7581 20.4778,12.2471"
           clip-path="none" /></g></g></g></svg>